<svg width="32" height="32" viewBox="0 0 32 32" fill="none" xmlns="http://www.w3.org/2000/svg">
<circle cx="16" cy="16" r="16" fill="#1D1E20" fill-opacity="0.4"/>
<path fill-rule="evenodd" clip-rule="evenodd" d="M16 8.69811C12.9577 8.69811 10.4362 11.2678 10.4362 14.5072V14.5172L10.4361 14.5172L10.4128 16.4915C10.4117 17.8474 9.95049 18.9943 9.41924 19.8439H22.5871C22.0769 18.9923 21.6349 17.8432 21.6349 16.4863V16.4758L21.6349 16.4758L21.6582 14.6001C21.6556 11.309 19.0928 8.69811 16 8.69811ZM8.73613 14.502C8.73881 10.3894 11.9594 7 16 7C20.0944 7 23.3583 10.4361 23.3583 14.6052V14.6158L23.3582 14.6158L23.3349 16.4914C23.3362 17.6455 23.7802 18.617 24.2513 19.2884C24.5743 19.7487 24.5418 20.2972 24.3843 20.6814C24.2281 21.0622 23.8281 21.542 23.1657 21.542H8.83516C8.16184 21.542 7.76249 21.0475 7.61029 20.6648C7.45638 20.2778 7.42677 19.7202 7.76442 19.2588L8.45068 19.7598L7.76442 19.2588C8.25686 18.5858 8.71278 17.6233 8.71278 16.4863V16.4763L8.71284 16.4763L8.73613 14.502ZM12.7723 22.815C13.0557 22.4412 13.5889 22.3677 13.9631 22.6508C14.4869 23.0471 15.199 23.3019 16 23.3019C16.801 23.3019 17.513 23.0471 18.0368 22.6508C18.411 22.3677 18.9442 22.4412 19.2276 22.815C19.5111 23.1888 19.4375 23.7213 19.0633 24.0044C18.2336 24.6321 17.1583 25 16 25C14.8416 25 13.7663 24.6321 12.9366 24.0044C12.5624 23.7213 12.4888 23.1888 12.7723 22.815Z" fill="white"/>
</svg>
