<svg width="67" height="38" viewBox="0 0 67 38" fill="none" xmlns="http://www.w3.org/2000/svg">
<g clip-path="url(#clip0_34_89)">
<path d="M5.1689 33.304C4.69344 33.0889 4.18455 32.9628 3.6661 32.9315L2.96448 32.8635C2.57011 32.8333 2.28295 32.7223 2.103 32.5305C2.01394 32.4443 1.94282 32.3404 1.89395 32.225C1.84509 32.1097 1.81949 31.9853 1.81871 31.8595C1.81677 31.6518 1.8697 31.4474 1.97186 31.2683C2.08143 31.0818 2.24234 30.9329 2.43419 30.8407C2.6742 30.728 2.93629 30.674 3.19995 30.683C3.47504 30.6723 3.74839 30.7323 3.99538 30.8574C4.19182 30.9627 4.35514 31.1233 4.46632 31.3205C4.57209 31.5113 4.62691 31.7275 4.62521 31.9472H6.15194C6.16362 31.4563 6.03803 30.9724 5.79012 30.5529C5.54253 30.152 5.1884 29.8326 4.76975 29.6327C4.27783 29.4031 3.74178 29.2913 3.20186 29.3055C2.67549 29.2929 2.15279 29.3988 1.67035 29.6159C1.24776 29.803 0.89019 30.1176 0.644803 30.5181C0.399415 30.9186 0.277734 31.3863 0.29581 31.8595C0.29581 32.5591 0.524261 33.1217 0.981164 33.5473C1.43807 33.973 2.05035 34.2203 2.81803 34.2893L3.51965 34.3464C4.02378 34.3911 4.39676 34.5018 4.63862 34.6785C4.75185 34.7551 4.8444 34.86 4.90767 34.9833C4.97093 35.1067 5.00284 35.2445 5.00044 35.384C5.0019 35.6084 4.93494 35.8275 4.809 36.0107C4.66537 36.2112 4.4696 36.366 4.24425 36.457C3.93943 36.5789 3.61393 36.6366 3.28705 36.6265C2.93576 36.6409 2.5857 36.5753 2.26189 36.4343C2.02842 36.3298 1.83142 36.1545 1.69715 35.9318C1.58435 35.7393 1.52386 35.5191 1.52198 35.2943H3.60277e-05C-0.00720055 35.7876 0.125891 36.2722 0.382915 36.6886C0.65613 37.1136 1.04265 37.4486 1.49614 37.6532C1.98239 37.887 2.58 38.0036 3.28897 38.003C3.87681 38.0165 4.46106 37.9052 5.00522 37.6759C5.45675 37.4845 5.84568 37.1641 6.1261 36.7526C6.39195 36.3483 6.52971 35.8692 6.52047 35.381C6.533 34.9354 6.40837 34.4971 6.16439 34.1287C5.90976 33.7675 5.56611 33.4828 5.1689 33.304Z" fill="white"/>
<path d="M14.8748 30.6515C14.5055 30.2347 14.0556 29.9021 13.5539 29.6751C12.972 29.4194 12.3438 29.2944 11.7113 29.3085C11.0756 29.2938 10.4442 29.4188 9.85909 29.6751C9.35737 29.9021 8.9074 30.2347 8.53815 30.6515C8.18939 31.0474 7.91918 31.5097 7.74272 32.0123C7.57055 32.4949 7.48147 33.0047 7.47949 33.5188V33.7671C7.48469 34.2548 7.5718 34.7378 7.73698 35.1949C7.91442 35.699 8.17832 36.1662 8.51614 36.5743C8.87776 37.0114 9.32624 37.3635 9.83133 37.6069C10.3616 37.8697 10.9886 38.0011 11.7122 38.0011C12.3566 38.0174 12.9962 37.8826 13.5826 37.6069C14.0875 37.3632 14.5359 37.0111 14.8978 36.5743C15.2356 36.1662 15.4995 35.699 15.6769 35.1949C15.8421 34.7378 15.9292 34.2548 15.9344 33.7671V33.5188C15.9324 33.0047 15.8434 32.4949 15.6712 32.0123C15.4941 31.5098 15.2236 31.0476 14.8748 30.6515ZM14.1732 34.7436C14.0562 35.0803 13.8775 35.3907 13.6467 35.658C13.4157 35.9256 13.1318 36.1392 12.814 36.2846C12.4662 36.4398 12.0902 36.5167 11.7113 36.5103C11.3308 36.5164 10.9533 36.4395 10.6038 36.2846C10.2835 36.1406 9.99746 35.9268 9.76528 35.658C9.53452 35.3907 9.35579 35.0803 9.23882 34.7436C9.11704 34.3944 9.05581 34.0258 9.05791 33.6548C9.05375 33.2672 9.11496 32.8818 9.23882 32.5158C9.35255 32.1807 9.53171 31.8733 9.76528 31.6122C9.99977 31.3531 10.2858 31.1491 10.6038 31.0141C11.3114 30.7285 12.0977 30.7285 12.8053 31.0141C13.1234 31.1491 13.4094 31.3531 13.6438 31.6122C13.8774 31.8733 14.0566 32.1807 14.1703 32.5158C14.2964 32.8814 14.3599 33.2668 14.3579 33.6548C14.3588 34.0261 14.2963 34.3946 14.1732 34.7436Z" fill="white"/>
<path d="M18.9927 29.546H17.4353V37.7863H18.7735H18.9927H22.227V36.3753H18.9927V29.546Z" fill="white"/>
<path d="M28.4231 34.5465C28.4317 34.9051 28.3586 35.2608 28.2096 35.5851C28.0706 35.8743 27.8488 36.1126 27.574 36.2679C27.2525 36.4274 26.9001 36.5102 26.5431 36.5102C26.1862 36.5102 25.8338 36.4274 25.5122 36.2679C25.2349 36.111 25.0111 35.8702 24.8709 35.5782C24.7194 35.2567 24.6443 34.9028 24.6517 34.5456V29.546H23.0944V34.4559C23.0786 35.1041 23.2159 35.7465 23.4945 36.328C23.7545 36.8514 24.1614 37.2822 24.6623 37.5646C25.1728 37.8576 25.8013 38.004 26.5479 38.004C27.2945 38.004 27.9234 37.8576 28.4346 37.5646C28.9337 37.2835 29.3375 36.852 29.5918 36.328C29.8629 35.7442 29.9961 35.1027 29.9804 34.4559V29.546H28.4231V34.5465Z" fill="white"/>
<path d="M31.0438 30.957H33.3583V37.7863H34.9147V30.957H37.2292V29.546H31.0438V30.957Z" fill="white"/>
<path d="M40.0472 29.546H38.4899V37.7863H40.0472V29.546Z" fill="white"/>
<path d="M48.9673 30.6515C48.5978 30.2349 48.1479 29.9024 47.6464 29.675C46.4601 29.1868 45.1369 29.1868 43.9506 29.675C43.4487 29.9021 42.9985 30.2347 42.6287 30.6515C42.2806 31.0476 42.0108 31.5098 41.8343 32.0122C41.6621 32.4948 41.573 33.0046 41.571 33.5188V33.7671C41.5761 34.2548 41.6635 34.7379 41.8295 35.1948C42.0066 35.6989 42.2701 36.1661 42.6077 36.5742C42.9697 37.0113 43.4185 37.3634 43.9238 37.6069C44.4541 37.8696 45.0811 38.001 45.8047 38.001C46.4488 38.0172 47.0881 37.8824 47.6741 37.6069C48.1795 37.3634 48.6283 37.0113 48.9903 36.5742C49.3282 36.1664 49.5918 35.699 49.7685 35.1948C49.9341 34.7379 50.0212 34.2547 50.026 33.7671V33.5188C50.0243 33.0047 49.9356 32.4949 49.7637 32.0122C49.5861 31.5099 49.3156 31.0478 48.9673 30.6515ZM48.2657 34.7435C48.1487 35.0802 47.97 35.3906 47.7392 35.6579C47.5079 35.9255 47.2236 36.1392 46.9055 36.2846C46.5581 36.4398 46.1824 36.5168 45.8038 36.5102C45.4249 36.5156 45.0491 36.4388 44.7011 36.2846C44.3808 36.1406 44.0948 35.9268 43.8626 35.6579C43.6319 35.3904 43.4529 35.0801 43.3352 34.7435C43.2137 34.3942 43.1528 34.0257 43.1552 33.6547C43.1492 33.2675 43.2085 32.8821 43.3304 32.5157C43.4448 32.1808 43.6243 31.8734 43.8578 31.6122C44.0923 31.3531 44.3783 31.1491 44.6963 31.0141C45.4039 30.7284 46.1902 30.7284 46.8979 31.0141C47.2155 31.1497 47.5014 31.3536 47.7364 31.6122C47.9699 31.8732 48.1491 32.1807 48.2628 32.5157C48.3868 32.8821 48.448 33.2678 48.4437 33.6557C48.4466 34.0262 48.3864 34.3944 48.2657 34.7435Z" fill="white"/>
<path d="M57.5917 36.4541H57.4491L54.0826 29.546H51.5278V37.7863H52.9751V30.8772H53.1292L56.4957 37.7863H59.061V29.546H57.5917V36.4541Z" fill="white"/>
<path d="M66.6439 34.1287C66.3874 33.7662 66.041 33.4813 65.6408 33.304C65.1656 33.089 64.6571 32.9629 64.1389 32.9315L63.4364 32.8636C63.042 32.8333 62.7532 32.7223 62.5701 32.5305C62.4828 32.4433 62.4136 32.3388 62.3665 32.2233C62.3195 32.1078 62.2956 31.9837 62.2963 31.8585C62.2944 31.6508 62.3473 31.4465 62.4495 31.2673C62.5584 31.0807 62.7186 30.9316 62.9099 30.8387C63.1499 30.7261 63.412 30.6722 63.6757 30.6811C63.9507 30.6704 64.2241 30.7303 64.4711 30.8555C64.6677 30.9605 64.8311 31.1212 64.942 31.3186C65.0481 31.5093 65.1032 31.7255 65.1019 31.9452H66.6257C66.6374 31.4544 66.5118 30.9704 66.2639 30.551C66.0163 30.1501 65.6622 29.8307 65.2435 29.6307C64.7516 29.4012 64.2156 29.2893 63.6757 29.3036C63.1493 29.2909 62.6266 29.3969 62.1441 29.614C61.7217 29.8006 61.364 30.1145 61.1183 30.5145C60.8726 30.9145 60.7504 31.3817 60.7677 31.8546C60.7677 32.5542 60.9961 33.1168 61.453 33.5424C61.9099 33.9681 62.5222 34.2144 63.2899 34.2814L63.9925 34.3386C64.496 34.3832 64.8686 34.4939 65.1105 34.6706C65.2237 34.7473 65.3163 34.8521 65.3795 34.9755C65.4428 35.0988 65.4747 35.2367 65.4723 35.3761C65.4752 35.6 65.4099 35.8191 65.2857 36.0028C65.1396 36.2051 64.9403 36.36 64.7113 36.4491C64.4065 36.5711 64.081 36.6287 63.7541 36.6186C63.4029 36.6331 63.0528 36.5675 62.729 36.4265C62.4955 36.3219 62.2985 36.1466 62.1642 35.924C62.0514 35.7314 61.991 35.5113 61.9891 35.2865H60.4757C60.4685 35.7797 60.6016 36.2644 60.8586 36.6807C61.1318 37.1058 61.5184 37.4407 61.9718 37.6453C62.4581 37.8792 63.0557 37.9958 63.7647 37.9951C64.3525 38.0087 64.9368 37.8973 65.4809 37.668C65.9329 37.4794 66.3231 37.1618 66.6056 36.7526C66.8728 36.3488 67.0119 35.8696 67.0038 35.3811C67.0152 34.935 66.8893 34.4966 66.6439 34.1287Z" fill="white"/>
<path d="M54.3947 18.9527C54.9518 19.5933 55.6193 20.1222 56.3636 20.5125C57.0849 20.8826 57.8808 21.0723 58.6867 21.0662C59.6516 21.0662 60.4368 20.8123 61.0424 20.3046C61.648 19.7968 61.9511 19.1038 61.9517 18.2255C61.9517 17.4629 61.7663 16.8507 61.3956 16.3889C61.0248 15.9271 60.4751 15.5172 59.7463 15.1592C59.017 14.8005 58.1252 14.4136 57.071 13.9985C56.5101 13.7909 55.8649 13.5078 55.1355 13.1491C54.3902 12.7808 53.6943 12.3149 53.0651 11.7628C52.4026 11.1826 51.8542 10.4772 51.4494 9.68475C51.0231 8.86496 50.8099 7.87734 50.8099 6.72188C50.8099 5.3352 51.1523 4.13967 51.837 3.1353C52.5217 2.13093 53.4528 1.35712 54.6301 0.813877C55.8081 0.271293 57.1265 0 58.5853 0C60.0881 0 61.3841 0.259797 62.4734 0.779391C63.4968 1.25355 64.4222 1.92555 65.1995 2.75891C65.8846 3.4899 66.4578 4.3238 66.8995 5.23207L63.1291 7.38008C62.8187 6.80835 62.4403 6.27875 62.0025 5.80356C61.5713 5.33605 61.0644 4.9493 60.5044 4.66058C59.9065 4.36335 59.2491 4.21485 58.5853 4.22704C57.6434 4.22704 56.9366 4.45235 56.4651 4.90297C55.9935 5.35359 55.7577 5.8791 55.7577 6.47949C55.7507 7.06046 55.9557 7.623 56.332 8.05601C56.7149 8.50597 57.2985 8.93295 58.0827 9.33693C59.0423 9.81412 60.0317 10.2249 61.0443 10.5666C61.8068 10.8448 62.5436 11.1927 63.2459 11.6061C63.9464 12.0186 64.5902 12.5256 65.1602 13.1137C65.7367 13.7094 66.1939 14.4157 66.5061 15.1927C66.8315 15.9895 66.9942 16.9091 66.9942 17.9516C66.9942 19.1301 66.7709 20.1811 66.3242 21.1047C65.8845 22.0169 65.252 22.8161 64.473 23.4438C63.6817 24.0809 62.7891 24.5719 61.8349 24.8952C60.8412 25.2325 59.801 25.4022 58.7547 25.3977C57.3715 25.4083 56.0017 25.1189 54.7345 24.5484C53.5177 24.0026 52.4147 23.2205 51.4857 22.2447C50.6008 21.3257 49.8727 20.2598 49.332 19.0916L52.7655 16.5968C53.2202 17.443 53.7667 18.2334 54.3947 18.9527Z" fill="white"/>
<path d="M45.1396 7.53577C44.5417 6.02993 43.6478 4.66761 42.514 3.53437C42.172 3.19375 41.8101 2.8749 41.4304 2.57959L38.9905 6.93078C39.4055 7.40094 39.7595 7.92458 40.0435 8.48858C40.6491 9.69067 40.9518 11.0652 40.9518 12.6122C40.9518 14.1591 40.6433 15.5336 40.0262 16.7357C39.4359 17.9068 38.5455 18.8892 37.4514 19.5764C36.35 20.2694 35.0699 20.6159 33.6111 20.6159C32.8897 20.6206 32.171 20.5245 31.4746 20.3302L29.0682 24.6213C30.5273 25.1495 32.0645 25.4123 33.6111 25.3977C35.4291 25.3977 37.0953 25.0801 38.6096 24.4449C40.0868 23.8355 41.4272 22.9214 42.5485 21.7589C43.666 20.5926 44.5468 19.2089 45.1396 17.6885C45.7668 16.0748 46.0813 14.3502 46.0652 12.6122C46.0652 10.765 45.7567 9.07287 45.1396 7.53577Z" fill="white"/>
<path d="M24.9034 21.9993L27.5261 17.323C27.4055 17.1338 27.2897 16.9397 27.1824 16.7318C26.5533 15.531 26.239 14.1565 26.2396 12.6082C26.2402 11.0599 26.5552 9.68672 27.1844 8.48856C27.7843 7.31877 28.6798 6.33736 29.7765 5.64788C30.8753 4.95486 32.1541 4.60836 33.6129 4.60836C33.9513 4.60828 34.2894 4.62802 34.6256 4.66748L37.01 0.41285C35.8975 0.133285 34.7561 -0.00535814 33.611 -3.51167e-07C31.926 -0.0163277 30.2531 0.295245 28.6805 0.918321C27.2048 1.5041 25.8604 2.39286 24.7291 3.53051C23.5978 4.66815 22.7032 6.03088 22.0997 7.53576C21.4693 9.07286 21.154 10.765 21.154 12.6121C21.1382 14.3486 21.4469 16.072 22.0634 17.6885C22.6475 19.2137 23.5298 20.5991 24.6554 21.7589C24.7378 21.8417 24.821 21.9195 24.9034 21.9993Z" fill="white"/>
<path d="M16.5471 4.76409V0.571533H6.21413H4.66538H1.56885V24.8253H4.66538H6.21413H16.5471V20.6337H6.21413V14.0153H15.8742V9.89171H6.21413V4.76409H16.5471Z" fill="white"/>
</g>
<defs>
<clipPath id="clip0_34_89">
<rect width="67" height="38" fill="white"/>
</clipPath>
</defs>
</svg>
