<svg width="243" height="66" viewBox="0 0 243 66" fill="none" xmlns="http://www.w3.org/2000/svg">
<path d="M2.624 39.024V62H15.168V57.712H7.008V51.632H15.168V47.472H7.008V43.28H15.168V39.024H2.624ZM30.6298 62.544C37.2218 62.544 42.5018 57.328 42.5018 50.576C42.5018 43.568 36.9018 38.448 30.5658 38.448C24.0378 38.448 18.5978 43.664 18.5978 50.48C18.5978 57.168 23.8138 62.544 30.6298 62.544ZM30.5338 42.64C34.9178 42.64 38.0858 46.32 38.0858 50.544C38.0858 54.928 34.7578 58.352 30.5978 58.352C26.5338 58.352 23.0138 55.248 23.0138 50.576C23.0138 45.84 26.4058 42.64 30.5338 42.64ZM44.8038 57.584C46.4998 60.944 48.8358 62.576 52.1958 62.576C56.3558 62.576 59.2358 59.888 59.2358 56.048C59.2358 52.656 57.0598 50.832 53.9238 48.304C51.0438 46 50.1798 45.264 50.1798 44.24C50.1798 43.312 50.9798 42.64 52.1318 42.64C53.3798 42.64 54.4998 43.472 55.6838 44.816L58.8518 42.128C57.0278 40.016 55.1078 38.448 52.1958 38.448C48.7398 38.448 45.8918 40.976 45.8918 44.24C45.8918 47.312 48.3878 49.424 52.6758 53.008C54.2438 54.32 54.9478 54.992 54.9478 56.24C54.9478 57.424 53.7638 58.384 52.2917 58.384C50.7558 58.384 49.5398 57.36 48.4838 55.376L44.8038 57.584ZM71.3975 57.584C73.0935 60.944 75.4295 62.576 78.7895 62.576C82.9495 62.576 85.8295 59.888 85.8295 56.048C85.8295 52.656 83.6535 50.832 80.5175 48.304C77.6375 46 76.7735 45.264 76.7735 44.24C76.7735 43.312 77.5735 42.64 78.7255 42.64C79.9735 42.64 81.0935 43.472 82.2775 44.816L85.4455 42.128C83.6215 40.016 81.7015 38.448 78.7895 38.448C75.3335 38.448 72.4855 40.976 72.4855 44.24C72.4855 47.312 74.9815 49.424 79.2695 53.008C80.8375 54.32 81.5415 54.992 81.5415 56.24C81.5415 57.424 80.3575 58.384 78.8855 58.384C77.3495 58.384 76.1335 57.36 75.0775 55.376L71.3975 57.584ZM88.8425 53.488C88.8425 58.416 92.6505 62.448 97.7705 62.448C102.891 62.448 106.699 58.416 106.699 53.488C106.699 48.464 102.635 44.56 97.7705 44.56C92.9065 44.56 88.8425 48.464 88.8425 53.488ZM93.1305 53.52C93.1305 50.64 95.0185 48.592 97.7705 48.592C100.523 48.592 102.411 50.64 102.411 53.52C102.411 56.496 100.363 58.416 97.7705 58.416C95.1785 58.416 93.1305 56.496 93.1305 53.52ZM110.197 38.448V62H114.453V38.448H110.197ZM126.288 62.416C130.96 62.416 133.744 59.504 133.744 54.064V45.008H129.488V54.064C129.488 56.944 128.56 58.512 126.288 58.512C124.048 58.512 123.088 56.912 123.088 53.872V45.008H118.832V54.16C118.832 59.856 121.744 62.416 126.288 62.416ZM136.824 45.008V48.688H139V62H143.256V48.688H145.784V45.008H143.256V38.736H139V45.008H136.824ZM148.614 45.008V62H152.87V45.008H148.614ZM148.23 39.76C148.23 41.104 149.382 42.256 150.726 42.256C152.102 42.256 153.254 41.104 153.254 39.76C153.254 38.416 152.102 37.328 150.726 37.328C149.382 37.328 148.23 38.416 148.23 39.76ZM156.78 53.488C156.78 58.416 160.588 62.448 165.708 62.448C170.828 62.448 174.636 58.416 174.636 53.488C174.636 48.464 170.572 44.56 165.708 44.56C160.844 44.56 156.78 48.464 156.78 53.488ZM161.068 53.52C161.068 50.64 162.956 48.592 165.708 48.592C168.46 48.592 170.348 50.64 170.348 53.52C170.348 56.496 168.3 58.416 165.708 58.416C163.116 58.416 161.068 56.496 161.068 53.52ZM178.55 45.008V62H182.806V53.616C182.806 50.192 184.438 48.464 186.518 48.464C189.11 48.464 189.398 50.608 189.398 53.968V62H193.654V50.384C193.654 46.736 190.998 44.56 187.83 44.56C185.942 44.56 184.438 45.36 182.806 46.736V45.008H178.55ZM196.894 59.536C198.366 61.456 200.382 62.448 202.846 62.448C206.558 62.448 208.958 60.176 208.958 57.136C208.958 54.32 207.23 52.912 203.07 50.896C202.142 50.448 201.534 50.128 201.534 49.488C201.534 48.816 202.206 48.464 203.07 48.464C204.094 48.464 205.054 49.072 206.014 50.032L208.638 47.376C207.262 45.552 205.246 44.56 203.038 44.56C199.774 44.56 197.534 46.8 197.534 49.456C197.534 51.856 198.91 53.264 202.558 55.12C204.382 56.048 204.958 56.496 204.958 57.264C204.958 58.032 204.126 58.64 203.07 58.64C201.95 58.64 200.51 57.808 199.518 56.656L196.894 59.536Z" fill="white"/>
<path d="M3.96 20H5.292L7.92 12.224C8.064 11.774 8.208 11.324 8.352 10.856L8.784 12.224L11.43 20H12.798L16.074 7.076H14.184L12.348 14.33C12.204 14.87 12.096 15.446 11.952 16.004C11.772 15.446 11.592 14.888 11.43 14.33L8.964 7.076H7.776L5.328 14.348C5.166 14.888 4.986 15.446 4.806 16.004C4.68 15.446 4.536 14.888 4.41 14.33L2.556 7.076H0.666L3.96 20ZM17.0952 15.23C17.0952 17.966 18.9852 20.252 22.0992 20.252C24.2052 20.252 25.6632 19.298 26.5632 17.948L25.1772 16.958C24.4212 17.858 23.5752 18.56 22.0992 18.56C20.3352 18.56 19.0752 17.426 18.9132 15.626H27.0492V15.302C27.0492 12.332 24.9612 10.19 22.0452 10.19C19.0032 10.19 17.0952 12.62 17.0952 15.23ZM22.0632 11.828C23.5212 11.828 24.7452 12.602 25.1592 14.132H19.0392C19.5432 12.566 20.6412 11.828 22.0632 11.828ZM29.4316 6.752V20H31.2676V6.752H29.4316ZM33.6342 15.248C33.6342 18.074 35.7042 20.252 38.7282 20.252C40.6362 20.252 42.0762 19.496 43.0122 18.326L41.6802 17.192C40.9062 18.038 39.9522 18.506 38.7282 18.506C36.8202 18.506 35.5062 17.138 35.5062 15.248C35.5062 13.394 36.8382 11.936 38.7642 11.936C40.0242 11.936 40.9422 12.422 41.6802 13.268L43.0302 12.134C42.1842 10.946 40.6542 10.19 38.7822 10.19C35.7942 10.19 33.6342 12.404 33.6342 15.248ZM44.8217 15.23C44.8217 17.984 46.9457 20.252 49.8257 20.252C52.7057 20.252 54.8297 17.984 54.8297 15.23C54.8297 12.44 52.6337 10.19 49.8257 10.19C47.0357 10.19 44.8217 12.44 44.8217 15.23ZM46.6937 15.248C46.6937 13.394 48.0437 11.936 49.8257 11.936C51.6077 11.936 52.9757 13.394 52.9757 15.248C52.9757 17.12 51.6077 18.506 49.8257 18.506C48.0437 18.506 46.6937 17.12 46.6937 15.248ZM57.4624 20H59.2984V15.392C59.2984 13.178 60.3064 11.9 61.8184 11.9C63.3304 11.9 63.7804 13.07 63.7804 15.05V20H65.6164V15.284C65.6164 13.142 66.6604 11.9 68.1544 11.9C69.4684 11.9 70.0984 12.818 70.0984 14.42V20H71.9344V14.06C71.9344 11.594 70.7464 10.19 68.6764 10.19C67.2544 10.19 66.1924 10.874 65.3284 12.188C64.7704 10.838 63.7444 10.19 62.4304 10.19C61.1884 10.19 60.1264 10.748 59.2984 11.792V10.442H57.4624V20ZM74.4213 15.23C74.4213 17.966 76.3113 20.252 79.4253 20.252C81.5313 20.252 82.9893 19.298 83.8893 17.948L82.5033 16.958C81.7473 17.858 80.9013 18.56 79.4253 18.56C77.6613 18.56 76.4013 17.426 76.2393 15.626H84.3753V15.302C84.3753 12.332 82.2873 10.19 79.3713 10.19C76.3293 10.19 74.4213 12.62 74.4213 15.23ZM79.3893 11.828C80.8473 11.828 82.0713 12.602 82.4853 14.132H76.3653C76.8693 12.566 77.9673 11.828 79.3893 11.828ZM91.7091 10.442V12.044H93.1671V20H95.0031V12.044H96.6771V10.442H95.0031V6.896H93.1671V10.442H91.7091ZM98.017 15.23C98.017 17.984 100.141 20.252 103.021 20.252C105.901 20.252 108.025 17.984 108.025 15.23C108.025 12.44 105.829 10.19 103.021 10.19C100.231 10.19 98.017 12.44 98.017 15.23ZM99.889 15.248C99.889 13.394 101.239 11.936 103.021 11.936C104.803 11.936 106.171 13.394 106.171 15.248C106.171 17.12 104.803 18.506 103.021 18.506C101.239 18.506 99.889 17.12 99.889 15.248Z" fill="white"/>
<path d="M237.353 52.7677C237.777 52.4142 237.835 51.7836 237.481 51.3593C237.128 50.935 236.497 50.8777 236.073 51.2313L237.353 52.7677ZM233.177 54.9458L232.537 55.714C232.908 56.0231 233.447 56.0231 233.818 55.714L233.177 54.9458ZM230.282 51.2313C229.858 50.8777 229.227 50.935 228.874 51.3593C228.52 51.7836 228.577 52.4142 229.002 52.7677L230.282 51.2313ZM236.073 51.2313L232.537 54.1776L233.818 55.714L237.353 52.7677L236.073 51.2313ZM233.818 54.1776L230.282 51.2313L229.002 52.7677L232.537 55.714L233.818 54.1776ZM240 53C240 56.866 236.866 60 233 60V62C237.971 62 242 57.9706 242 53H240ZM233 60C229.134 60 226 56.866 226 53H224C224 57.9706 228.029 62 233 62V60ZM226 53C226 49.134 229.134 46 233 46V44C228.029 44 224 48.0294 224 53H226ZM233 46C236.866 46 240 49.134 240 53H242C242 48.0294 237.971 44 233 44V46Z" fill="white"/>
</svg>
