<svg width="18" height="18" viewBox="0 0 18 18" fill="none" xmlns="http://www.w3.org/2000/svg">
<path d="M13.3531 8.76772C13.7774 8.41416 13.8347 7.78359 13.4811 7.35932C13.1275 6.93504 12.497 6.87772 12.0727 7.23128L13.3531 8.76772ZM9.17733 10.9458L8.53715 11.714C8.90799 12.0231 9.44667 12.0231 9.81752 11.714L9.17733 10.9458ZM6.28196 7.23128C5.85768 6.87772 5.22712 6.93504 4.87355 7.35932C4.51999 7.78359 4.57731 8.41416 5.00159 8.76772L6.28196 7.23128ZM12.0727 7.23128L8.53715 10.1776L9.81752 11.714L13.3531 8.76772L12.0727 7.23128ZM9.81752 10.1776L6.28196 7.23128L5.00159 8.76772L8.53715 11.714L9.81752 10.1776ZM16 9C16 12.866 12.866 16 9 16V18C13.9706 18 18 13.9706 18 9H16ZM9 16C5.13401 16 2 12.866 2 9H0C0 13.9706 4.02944 18 9 18V16ZM2 9C2 5.13401 5.13401 2 9 2V0C4.02944 0 0 4.02944 0 9H2ZM9 2C12.866 2 16 5.13401 16 9H18C18 4.02944 13.9706 0 9 0V2Z" fill="white"/>
</svg>
