<svg width="24" height="24" viewBox="0 0 24 24" fill="none" xmlns="http://www.w3.org/2000/svg">
<path d="M12.1399 2.00093C6.51611 1.92497 1.92497 6.51589 2.00093 12.1394C2.07593 17.5326 6.46755 21.9241 11.8611 21.999C17.4858 22.076 22.076 17.485 21.999 11.8615C21.925 6.46734 17.5334 2.07592 12.1399 2.00093ZM18.2175 17.7326C18.1983 17.7533 18.1749 17.7696 18.1487 17.7802C18.1226 17.7908 18.0945 17.7956 18.0663 17.7941C18.0381 17.7926 18.0106 17.785 17.9857 17.7717C17.9609 17.7584 17.9392 17.7398 17.9223 17.7172C17.4923 17.1547 16.9657 16.673 16.3671 16.2948C15.1431 15.5093 13.5922 15.0766 12.0005 15.0766C10.4087 15.0766 8.85782 15.5093 7.63384 16.2948C7.03525 16.6729 6.50865 17.1543 6.07863 17.7168C6.06173 17.7393 6.04008 17.7579 6.01519 17.7712C5.99031 17.7845 5.96281 17.7921 5.93464 17.7936C5.90647 17.7951 5.87833 17.7903 5.8522 17.7797C5.82607 17.7691 5.8026 17.7528 5.78345 17.7321C4.37278 16.2094 3.57369 14.2196 3.53932 12.1442C3.46096 7.46628 7.29972 3.55078 11.9798 3.53925C16.6599 3.52771 20.4616 7.32783 20.4616 12C20.4632 14.1255 19.6617 16.1731 18.2175 17.7326Z" fill="#3169B3"/>
<path d="M12.0007 6.61572C11.0527 6.61572 10.1955 6.97098 9.58641 7.61659C8.9773 8.2622 8.67299 9.15491 8.74173 10.113C8.88115 11.9998 10.3431 13.5381 12.0007 13.5381C13.6583 13.5381 15.1174 11.9998 15.2597 10.1135C15.3309 9.16452 15.0289 8.27999 14.4097 7.62236C13.7982 6.97338 12.9425 6.61572 12.0007 6.61572Z" fill="#3169B3"/>
</svg>
