<svg width="16" height="20" viewBox="0 0 16 20" fill="none" xmlns="http://www.w3.org/2000/svg">
<path fill-rule="evenodd" clip-rule="evenodd" d="M8 0C6.84269 0 5.73278 0.422307 4.91444 1.17402C4.0961 1.92573 3.63636 2.94527 3.63636 4.00835V7.30689H2.90909C1.30244 7.30689 0 8.50329 0 9.97912V17.3278C0 18.8036 1.30244 20 2.90909 20H13.0909C14.6976 20 16 18.8036 16 17.3278V9.97912C16 8.50329 14.6976 7.30689 13.0909 7.30689H12.3636V4.00835C12.3636 2.94527 11.9039 1.92573 11.0856 1.17402C10.2672 0.422307 9.15731 0 8 0ZM10.9091 7.30689V4.00835C10.9091 3.29963 10.6026 2.61994 10.057 2.1188C9.51148 1.61765 8.77154 1.33612 8 1.33612C7.22846 1.33612 6.48852 1.61765 5.94296 2.1188C5.3974 2.61994 5.09091 3.29963 5.09091 4.00835V7.30689H10.9091ZM2.90909 8.64301C2.10577 8.64301 1.45455 9.24121 1.45455 9.97912V17.3278C1.45455 18.0657 2.10577 18.6639 2.90909 18.6639H13.0909C13.8942 18.6639 14.5455 18.0657 14.5455 17.3278V9.97912C14.5455 9.24121 13.8942 8.64301 13.0909 8.64301H2.90909Z" fill="#3169B3"/>
</svg>
